<svg width="48" height="48" viewBox="0 0 48 48" fill="none" xmlns="http://www.w3.org/2000/svg">
<path d="M41 21V7.18627C41 6.58198 40.7268 6.01009 40.2567 5.63039L38.3439 4.08544C37.572 3.462 36.4597 3.49872 35.7306 4.17171L33 6.69231" stroke="#FF498B" stroke-width="3" stroke-linecap="round"/>
<path d="M1.5 25C1.5 23.6193 2.61929 22.5 4 22.5H44C45.3807 22.5 46.5 23.6193 46.5 25V27C46.5 28.3807 45.3807 29.5 44 29.5H4C2.61929 29.5 1.5 28.3807 1.5 27V25Z" stroke="#152C5B" stroke-width="3"/>
<path d="M5.5 29.5H42.5V38C42.5 39.933 40.933 41.5 39 41.5H9C7.067 41.5 5.5 39.933 5.5 38V29.5Z" stroke="#152C5B" stroke-width="3"/>
<path d="M11 43V46" stroke="#152C5B" stroke-width="3" stroke-linecap="round"/>
<path d="M37 43V46" stroke="#152C5B" stroke-width="3" stroke-linecap="round"/>
</svg>
