<svg width="48" height="48" viewBox="0 0 48 48" fill="none" xmlns="http://www.w3.org/2000/svg">
<mask id="path-1-inside-1" fill="white">
<path d="M9 46C11.2091 46 13 44.2091 13 42L13 28C13 27.4477 12.5523 27 12 27L6 27C5.44772 27 5 27.4477 5 28L5 42C5 44.2091 6.79086 46 9 46Z"/>
</mask>
<path d="M9 46C11.2091 46 13 44.2091 13 42L13 28C13 27.4477 12.5523 27 12 27L6 27C5.44772 27 5 27.4477 5 28L5 42C5 44.2091 6.79086 46 9 46Z" stroke="#152C5B" stroke-width="6" mask="url(#path-1-inside-1)"/>
<mask id="path-2-inside-2" fill="white">
<path d="M39 46C41.2091 46 43 44.2091 43 42L43 28C43 27.4477 42.5523 27 42 27L36 27C35.4477 27 35 27.4477 35 28L35 42C35 44.2091 36.7909 46 39 46Z"/>
</mask>
<path d="M39 46C41.2091 46 43 44.2091 43 42L43 28C43 27.4477 42.5523 27 42 27L36 27C35.4477 27 35 27.4477 35 28L35 42C35 44.2091 36.7909 46 39 46Z" stroke="#152C5B" stroke-width="6" mask="url(#path-2-inside-2)"/>
<path d="M17 12V18" stroke="#152C5B" stroke-width="3" stroke-linecap="round"/>
<path d="M31 12V18" stroke="#152C5B" stroke-width="3" stroke-linecap="round"/>
<mask id="path-5-inside-3" fill="white">
<path d="M17 13C19.2091 13 21 11.2091 21 9L21 4C21 3.44772 20.5523 3 20 3L14 3C13.4477 3 13 3.44772 13 4L13 9C13 11.2091 14.7909 13 17 13Z"/>
</mask>
<path d="M17 13C19.2091 13 21 11.2091 21 9L21 4C21 3.44772 20.5523 3 20 3L14 3C13.4477 3 13 3.44772 13 4L13 9C13 11.2091 14.7909 13 17 13Z" stroke="#FF498B" stroke-width="6" mask="url(#path-5-inside-3)"/>
<mask id="path-6-inside-4" fill="white">
<path d="M31 13C33.2091 13 35 11.2091 35 9L35 4C35 3.44772 34.5523 3 34 3L28 3C27.4477 3 27 3.44772 27 4L27 9C27 11.2091 28.7909 13 31 13Z"/>
</mask>
<path d="M31 13C33.2091 13 35 11.2091 35 9L35 4C35 3.44772 34.5523 3 34 3L28 3C27.4477 3 27 3.44772 27 4L27 9C27 11.2091 28.7909 13 31 13Z" stroke="#FF498B" stroke-width="6" mask="url(#path-6-inside-4)"/>
<path d="M6.23607 20.882C6.65955 20.035 7.52521 19.5 8.47214 19.5H39.5279C40.4748 19.5 41.3405 20.035 41.7639 20.882L43.7639 24.882C44.5951 26.5442 43.3863 28.5 41.5279 28.5H6.47214C4.61368 28.5 3.40494 26.5442 4.23607 24.882L6.23607 20.882Z" stroke="#152C5B" stroke-width="3"/>
</svg>
