<svg width="48" height="48" viewBox="0 0 48 48" fill="none" xmlns="http://www.w3.org/2000/svg">
<path d="M30.5 40.5C30.5 41.6457 29.4516 43.1445 26.6771 44.4451C24.0221 45.6896 20.2488 46.5 16 46.5C11.7512 46.5 7.97793 45.6896 5.32294 44.4451C2.54839 43.1445 1.5 41.6457 1.5 40.5C1.5 39.3543 2.54839 37.8555 5.32294 36.5549C7.97793 35.3104 11.7512 34.5 16 34.5C20.2488 34.5 24.0221 35.3104 26.6771 36.5549C29.4516 37.8555 30.5 39.3543 30.5 40.5Z" stroke="#152C5B" stroke-width="3"/>
<path d="M27.5 14C27.5 16.5633 26.2424 23.2524 23.9927 29.3345C22.8731 32.3613 21.5479 35.1239 20.0868 37.101C18.583 39.136 17.1938 40 16 40C14.8062 40 13.417 39.136 11.9132 37.101C10.4521 35.1239 9.12695 32.3613 8.00735 29.3345C5.75761 23.2524 4.5 16.5633 4.5 14C4.5 11.5996 5.65607 8.42506 7.76268 5.84346C9.85332 3.28144 12.7123 1.5 16 1.5C19.2877 1.5 22.1467 3.28144 24.2373 5.84346C26.3439 8.42506 27.5 11.5996 27.5 14Z" fill="white" stroke="#152C5B" stroke-width="3"/>
<circle cx="16" cy="15" r="4.5" stroke="#FF498B" stroke-width="3"/>
</svg>
