<svg width="48" height="48" viewBox="0 0 48 48" fill="none" xmlns="http://www.w3.org/2000/svg">
<mask id="path-1-inside-1" fill="white">
<path fill-rule="evenodd" clip-rule="evenodd" d="M17.919 10C17.0691 10 16.312 10.5371 16.0312 11.3393L14.75 15H8C3.58172 15 0 18.5817 0 23V37C0 41.4183 3.58172 45 8 45H40C44.4183 45 48 41.4183 48 37V23C48 18.5817 44.4183 15 40 15H33L31.5029 11.2572C31.1992 10.4979 30.4637 10 29.6459 10H17.919Z"/>
</mask>
<path d="M16.0312 11.3393L18.8628 12.3303V12.3303L16.0312 11.3393ZM14.75 15V18H16.8784L17.5816 15.9911L14.75 15ZM33 15L30.2146 16.1142L30.9689 18H33V15ZM31.5029 11.2572L28.7175 12.3714V12.3714L31.5029 11.2572ZM18.8628 12.3303C18.7224 12.7314 18.3439 13 17.919 13V7C15.7942 7 13.9016 8.34281 13.1997 10.3482L18.8628 12.3303ZM17.5816 15.9911L18.8628 12.3303L13.1997 10.3482L11.9184 14.0089L17.5816 15.9911ZM8 18H14.75V12H8V18ZM3 23C3 20.2386 5.23858 18 8 18V12C1.92487 12 -3 16.9249 -3 23H3ZM3 37V23H-3V37H3ZM8 42C5.23858 42 3 39.7614 3 37H-3C-3 43.0751 1.92487 48 8 48V42ZM40 42H8V48H40V42ZM45 37C45 39.7614 42.7614 42 40 42V48C46.0751 48 51 43.0751 51 37H45ZM45 23V37H51V23H45ZM40 18C42.7614 18 45 20.2386 45 23H51C51 16.9249 46.0751 12 40 12V18ZM33 18H40V12H33V18ZM28.7175 12.3714L30.2146 16.1142L35.7854 13.8858L34.2883 10.143L28.7175 12.3714ZM29.6459 13C29.237 13 28.8693 12.751 28.7175 12.3714L34.2883 10.143C33.529 8.24475 31.6905 7 29.6459 7V13ZM17.919 13H29.6459V7H17.919V13Z" fill="#152C5B" mask="url(#path-1-inside-1)"/>
<circle cx="24" cy="30" r="6.5" stroke="#FF498B" stroke-width="3"/>
<path d="M40 22L34 22" stroke="#152C5B" stroke-width="3" stroke-linecap="round"/>
</svg>
